P2
3 3
255
249 230 253
230 198 235
247 220 248
