P3
3 1
255
250
240
230
200
190
195
200
160
180
