P2
1 3
255
40
140
190
