P2
3 1
255
240 
195 
180
