P3
1 3
255
120
0
0
150
130
140
180
200
190
