P3
3 3
255
255 246 245 253 219 218 255 252 251
248 232 210 200 193 201 224 230 252
245 251 246 209 231 221 245 247 251
